<?xml version="1.0" encoding="UTF-8" standalone="no"?>
<!DOCTYPE svg PUBLIC "-//W3C//DTD SVG 1.1//EN" "http://www.w3.org/Graphics/SVG/1.1/DTD/svg11.dtd">
<svg width="100%" height="100%" viewBox="0 0 1000 1000" version="1.1" xmlns="http://www.w3.org/2000/svg" xmlns:xlink="http://www.w3.org/1999/xlink" xml:space="preserve" xmlns:serif="http://www.serif.com/" style="fill-rule:evenodd;clip-rule:evenodd;stroke-linejoin:round;stroke-miterlimit:2;">
    <rect x="0" y="0" width="1000" height="1000" style="fill:rgb(46,52,64);"/>
    <g transform="matrix(10,0,0,9.90187,100,165)">
        <path d="M54.438,67.664L26.667,32.116L26.667,22.253L57.446,62.043L73.986,62.043L73.986,6.015L46.168,6.015L40.154,0L80,0L80,67.664L54.438,67.664Z" style="fill:rgb(136,192,208);fill-rule:nonzero;"/>
    </g>
    <g transform="matrix(10,0,0,9.90187,100,165)">
        <path d="M25.562,0L53.333,35.546L53.333,45.41L22.554,5.62L6.015,5.62L6.015,61.648L33.832,61.648L39.846,67.663L0,67.663L0,0L25.562,0Z" style="fill:rgb(136,192,208);fill-rule:nonzero;"/>
    </g>
</svg>
